<svg xmlns="http://www.w3.org/2000/svg" xmlns:xlink="http://www.w3.org/1999/xlink" width="500" zoomAndPan="magnify" viewBox="0 0 375 374.999991" height="500" preserveAspectRatio="xMidYMid meet" version="1.0"><defs><clipPath id="4d7df81973"><path d="M 17 4 L 362.933594 4 L 362.933594 366 L 17 366 Z M 17 4 " clip-rule="nonzero"/></clipPath></defs><g clip-path="url(#4d7df81973)"><path fill="#118c6c" d="M 354.449219 151.625 C 353.894531 151.714844 353.367188 152.015625 352.886719 152.445312 C 358.59375 137.800781 353.695312 108.46875 343.574219 100.4375 C 339.769531 106.332031 339.644531 115.992188 339.535156 123.21875 C 339.410156 100.636719 338.734375 68.796875 311.132812 61.613281 C 310.957031 65.390625 310.472656 69.113281 309.4375 72.757812 C 309.992188 58.421875 295.730469 34.5625 280.15625 32.1875 C 278.550781 35.800781 277.46875 41.828125 277.699219 46.839844 C 273.066406 32.144531 248.222656 27.492188 237.304688 20.140625 C 237.707031 23.730469 238.867188 27.324219 240.539062 30.535156 C 236.269531 21.644531 219.785156 17.535156 211.886719 15.058594 C 198.542969 10.875 171.378906 0.148438 157.5 6.625 C 160.820312 14.496094 175.871094 20.820312 183.433594 24.285156 C 173.285156 23.605469 164.003906 20.140625 153.457031 20.234375 C 140.039062 20.355469 125.878906 23.347656 113.414062 28.269531 C 114.308594 29.351562 115.449219 30.019531 116.722656 30.433594 C 100.703125 30.875 80.8125 35.675781 72.074219 47.464844 C 74.824219 53.773438 88.644531 51.773438 95.078125 51.964844 C 92.574219 54.890625 88.128906 56.082031 84.316406 57.800781 C 73.226562 62.804688 62.636719 68.796875 53.058594 76.347656 C 41.472656 85.492188 44.90625 88.328125 53.382812 87.382812 C 44.242188 91.113281 33.613281 101.082031 30.933594 107.789062 C 35.648438 108.382812 42.21875 106.046875 46.988281 103.332031 C 41.585938 113.28125 32.101562 123.65625 23.796875 130.542969 C 29.265625 130.59375 34.664062 127.003906 39.710938 125.085938 C 32.6875 137.890625 19.910156 155.046875 17.164062 169.550781 C 21.664062 170.351562 25.394531 166.582031 29.304688 165.109375 C 29.1875 183.679688 11.9375 204.804688 21.894531 223.257812 C 25.597656 221.546875 29.191406 217.355469 31.515625 213.800781 C 29.125 225.21875 24.722656 246.449219 32.65625 256.519531 C 35.300781 254.839844 36.855469 251.824219 38.222656 248.730469 C 38.007812 262.183594 40.355469 273.238281 45.300781 285.953125 C 51.6875 302.367188 61.554688 296.59375 59.050781 284.21875 C 62.308594 292.363281 69.238281 299.519531 74.898438 305.921875 C 81.8125 313.75 90.976562 330.632812 100.644531 334.609375 C 100.777344 331.136719 98.890625 328.246094 98.417969 324.945312 C 106.078125 329.589844 111.835938 338.273438 121.917969 337.917969 C 129.652344 337.652344 130.941406 334.496094 128.195312 329.816406 C 135.035156 337.703125 146.972656 346.417969 155.53125 352.070312 C 162.8125 356.875 185.625 371.078125 193.554688 363.226562 C 189.453125 357.117188 182.929688 351.890625 181.207031 344.464844 C 194.53125 342.894531 208.691406 354.195312 223.058594 353.328125 C 227.574219 353.054688 241.71875 351.652344 240.828125 346.078125 C 240.578125 344.507812 235.101562 341.449219 234.003906 340.488281 C 240.324219 340.082031 246.847656 340.753906 253.210938 340.421875 C 258.933594 340.125 276.675781 339.664062 280.652344 333.800781 C 286.0625 325.8125 273.464844 327.863281 267.34375 327.34375 C 283.375 324.128906 300.125 321.339844 312.976562 309.972656 C 322.132812 301.878906 320.734375 296.199219 308.089844 296.320312 C 311.101562 290.75 319.15625 287.261719 324.425781 283.042969 C 334.414062 275.058594 342.804688 265.738281 348.535156 254.199219 C 352.242188 246.738281 358.707031 233.5625 358.933594 225.042969 C 354.835938 224.914062 349.703125 227.394531 345.234375 230.5 C 355.425781 220.140625 361.429688 206.316406 356.683594 191.585938 C 355.183594 191.386719 353.671875 191.460938 352.25 191.792969 C 358.699219 184.589844 362.15625 173.222656 362.324219 164.265625 C 362.457031 157.734375 362.96875 150.261719 354.449219 151.625 Z M 277.121094 214.890625 C 279.195312 214.683594 281.222656 215.535156 283.414062 214.488281 C 280.992188 217.851562 259.84375 235.023438 270.253906 237.28125 C 263.027344 240.605469 251.726562 243.050781 246.3125 249.3125 C 243.324219 252.773438 242.347656 258.519531 247.527344 258.554688 C 248.363281 258.464844 249.171875 258.371094 249.941406 258.25 C 249.015625 258.464844 248.214844 258.5625 247.527344 258.554688 C 237.285156 259.636719 222.828125 258.859375 214.417969 264.117188 C 204.953125 270.03125 214.492188 271.78125 221.519531 273.703125 C 215.335938 273.71875 167.113281 266.449219 180.917969 281.992188 C 180.960938 282.003906 181.007812 282.027344 181.050781 282.050781 C 181.332031 282.339844 181.316406 282.355469 181.007812 282.09375 C 180.976562 282.058594 180.949219 282.027344 180.917969 281.992188 C 172.769531 278.5625 166.601562 267.550781 157.574219 266.402344 C 155.179688 266.101562 150.25 267.253906 148.179688 269.285156 C 147.875 269.378906 147.578125 269.5 147.292969 269.625 C 145.582031 264.523438 143.425781 259.597656 140.8125 254.90625 C 137.503906 247.589844 133.996094 240.332031 130.605469 233.113281 C 123.433594 232.144531 121.132812 242.5625 120.984375 249.039062 C 121.042969 249.914062 121.066406 250.742188 121.042969 251.503906 C 120.984375 250.796875 120.960938 249.957031 120.984375 249.039062 C 120.289062 238.960938 114.042969 222.375 107.230469 216.84375 C 106.113281 218.101562 105.394531 218.859375 105.027344 219.867188 C 104.996094 219.878906 104.964844 219.894531 104.9375 219.910156 C 105.46875 210.507812 106.832031 201.175781 106.292969 191.648438 C 103.558594 193.503906 100.933594 196.386719 99.363281 199.644531 C 98.992188 200.71875 98.617188 201.753906 98.238281 202.746094 C 98.488281 201.6875 98.882812 200.652344 99.363281 199.644531 C 103.632812 187.320312 107.121094 170.070312 103.339844 157.835938 C 105.027344 155.1875 106.582031 152.46875 108 149.675781 C 114.375 142.992188 120.828125 135.304688 119.28125 129.113281 C 118.824219 129.03125 118.371094 128.988281 117.921875 128.972656 C 118.136719 128.832031 118.347656 128.699219 118.5625 128.558594 C 118.769531 128.417969 118.925781 128.261719 119.050781 128.09375 C 121.671875 126.285156 124.136719 124.242188 126.410156 121.933594 C 126.796875 121.539062 126.9375 121.101562 126.929688 120.679688 C 127.898438 119.488281 128.652344 118.25 129.089844 116.992188 C 123.753906 116.683594 118.28125 116.636719 113.011719 117.742188 C 120.265625 115.660156 159.710938 105.753906 140.71875 97.3125 C 150.601562 97.421875 160.355469 97.132812 170.214844 96.71875 C 178.550781 96.363281 193.21875 99.265625 200.992188 94.832031 C 201.660156 94.585938 202.324219 94.34375 202.984375 94.082031 C 212.042969 98.148438 222.085938 102.226562 229.941406 102.621094 C 235.328125 102.886719 240.191406 102.5625 235.890625 95.792969 C 241.453125 100.265625 244.625 107.648438 248.867188 113.496094 C 251.398438 116.992188 260.902344 129.964844 266.640625 123.871094 C 268.328125 126.691406 270.332031 129.308594 272.589844 131.699219 C 274.886719 137.75 275.714844 143.117188 283.414062 143.878906 C 279.816406 151.269531 281.421875 160.082031 280.992188 168.203125 C 280.347656 180.214844 282.648438 180.429688 289.910156 172.378906 C 282 182.289062 275.65625 202.367188 277.121094 214.890625 Z M 277.121094 214.890625 " fill-opacity="1" fill-rule="nonzero"/></g><path fill="#d81f07" d="M 131.175781 242.058594 C 125.167969 251.230469 117.839844 260.050781 111.296875 269.011719 C 105.179688 277.386719 98.527344 285.410156 93.820312 294.628906 C 89.925781 302.242188 86.460938 314.957031 80.378906 320.746094 C 75.175781 314.089844 69.472656 308.46875 64.820312 301.175781 C 61.398438 295.824219 62.359375 292.914062 64.964844 286.664062 C 74.558594 263.6875 94.195312 238.976562 117.988281 229.386719 C 122.820312 228.433594 127.351562 238.519531 131.175781 242.058594 Z M 133.695312 118.316406 C 128.195312 115.667969 122.671875 112.394531 117.660156 108.878906 C 111.339844 104.441406 103.902344 100.554688 97.171875 96.542969 C 88.320312 91.261719 78.90625 86.78125 69.695312 82.078125 C 64.242188 79.296875 56.46875 73.578125 50.835938 76.867188 C 48.007812 78.519531 46.808594 82.441406 45.046875 84.988281 C 41.332031 90.359375 37.03125 96.265625 31.082031 99 C 41.222656 94.550781 64.128906 105.988281 74.019531 109.945312 C 79.75 112.230469 85.699219 114.289062 91.464844 116.609375 C 100.527344 120.242188 105.054688 122.183594 113.011719 127.53125 C 116.304688 130.03125 122.332031 134.519531 121.65625 134.328125 C 125.847656 128.890625 129.734375 122.703125 133.695312 118.316406 Z M 197.792969 97.148438 C 203.058594 99.050781 210.917969 100.730469 216.574219 100.089844 C 220.816406 91.574219 228.777344 85.375 232.753906 76.347656 C 236.246094 68.425781 237.988281 61.339844 239.273438 52.964844 C 240.214844 46.832031 242.324219 37.976562 240.917969 31.792969 C 239.691406 26.410156 233.664062 23.597656 229.617188 20.332031 C 223.746094 15.601562 217.707031 13.851562 211.324219 10.660156 C 210.222656 20.175781 213.628906 30.128906 213.058594 39.878906 C 212.503906 49.417969 210.875 59.546875 208.757812 68.847656 C 207.453125 74.578125 206.5 80.746094 204.050781 86.167969 C 202.027344 90.667969 197.292969 95.121094 197.792969 97.148438 Z M 356.394531 132.070312 C 349.238281 133.824219 341.6875 140.382812 334.449219 143.339844 C 325.523438 146.980469 316.550781 150.988281 307.320312 153.933594 C 297.386719 157.105469 288.195312 158.457031 278.246094 159.304688 C 278.808594 163.671875 279.1875 168.0625 279.445312 172.46875 C 279.542969 174.148438 279.695312 175.859375 279.832031 177.578125 C 280.164062 177.84375 280.519531 178.097656 280.925781 178.316406 C 290.644531 183.554688 306.722656 177.675781 316.855469 175.265625 C 328.445312 172.519531 351.5625 169.957031 353.976562 156.378906 C 355.359375 148.558594 356.675781 140.089844 356.394531 132.070312 Z M 265.417969 231.839844 C 256.9375 239.308594 249.402344 239.324219 253.21875 251.335938 C 257.683594 265.382812 263.78125 273.421875 276.011719 282.117188 C 283.777344 287.632812 301.480469 299.234375 311.40625 297.6875 C 319.105469 296.496094 327.757812 284.6875 332.371094 278.867188 C 315.492188 272.46875 297.660156 268.085938 282.5625 257.246094 C 277.277344 253.445312 271.59375 248.582031 267.707031 243.480469 C 265.484375 240.570312 263.605469 233.039062 265.417969 231.839844 Z M 183.175781 295.832031 C 169.066406 284.910156 158.1875 277.925781 139.6875 278.761719 C 130.605469 279.175781 128.171875 280.65625 126.039062 289.730469 C 123.390625 301.035156 124.707031 313.476562 124.6875 325.09375 C 124.679688 330.726562 124.582031 348.898438 130.453125 351.859375 C 135.5 354.410156 149.488281 345.796875 154.433594 344.035156 C 155.449219 353.355469 161.316406 369.179688 169.1875 374.835938 C 171.945312 366.09375 173.953125 356.742188 176.46875 347.964844 C 178.097656 342.285156 183.796875 338.496094 185.085938 333.214844 C 190.304688 336.265625 196.417969 336.023438 201.414062 333.066406 C 211.398438 341.167969 212.929688 357.6875 216.027344 368.484375 C 223.035156 363.285156 225.9375 355.253906 230.71875 348.476562 C 234.027344 343.78125 234.761719 344.847656 240.984375 345.335938 C 246.253906 345.753906 253.125 348.386719 257.054688 345.210938 C 262.441406 340.859375 262.671875 322.523438 263.917969 316.171875 C 265.699219 307.121094 265.855469 295.570312 263.597656 286.523438 C 262.28125 281.242188 262.191406 280.828125 258.097656 280.226562 C 249.476562 278.96875 233.820312 285.515625 225.566406 288.699219 C 219.59375 291.003906 213.984375 294.984375 208.742188 298.230469 C 204.324219 289.683594 188.558594 289.949219 183.175781 295.832031 Z M 257.90625 77.039062 C 247.367188 77.039062 238.816406 85.589844 238.816406 96.132812 C 238.816406 106.679688 247.367188 115.230469 257.90625 115.230469 C 268.445312 115.230469 276.996094 106.679688 276.996094 96.132812 C 276.996094 85.589844 268.445312 77.039062 257.90625 77.039062 Z M 45.898438 224.929688 C 34.90625 224.929688 25.996094 233.847656 25.996094 244.839844 C 25.996094 255.835938 34.90625 264.753906 45.898438 264.753906 C 56.890625 264.753906 65.804688 255.835938 65.804688 244.839844 C 65.804688 233.847656 56.890625 224.929688 45.898438 224.929688 Z M 231.511719 247.277344 C 222.761719 247.277344 215.671875 254.371094 215.671875 263.125 C 215.671875 271.875 222.761719 278.96875 231.511719 278.96875 C 240.257812 278.96875 247.351562 271.875 247.351562 263.125 C 247.351562 254.371094 240.253906 247.277344 231.511719 247.277344 Z M 231.511719 247.277344 " fill-opacity="1" fill-rule="nonzero"/><path fill="#335f55" d="M 52.292969 189.691406 C 54.269531 190.210938 66.648438 190.460938 69.140625 188.03125 C 65.402344 193.964844 78.105469 195.445312 81.984375 193.652344 C 80.753906 200.511719 82.992188 204.417969 90.539062 205.773438 C 85.53125 207.1875 78.726562 207.316406 74.871094 212.113281 C 72.324219 206.175781 62.472656 203.605469 58.238281 209.0625 C 59.199219 203.398438 52.042969 193.421875 46.816406 196.257812 C 41.984375 198.886719 38.832031 208.476562 42.226562 213.601562 C 37.847656 214.3125 32.398438 216.675781 32.605469 221.976562 C 27.359375 221.09375 18.476562 224.449219 14.523438 229.195312 C 16.914062 220.851562 19.371094 216.511719 17.851562 211.453125 C 25.683594 210.988281 32.050781 204.507812 28.054688 196.421875 C 45.003906 199.25 39.683594 174.015625 26.652344 181.65625 C 28.59375 177.332031 25.527344 170.003906 20.578125 169.550781 C 24.539062 165.398438 23.175781 157.808594 20 153.453125 C 23.101562 159.332031 30.464844 158.3125 35.699219 156.949219 C 32.101562 165.21875 42.007812 166.472656 47.742188 166.746094 C 42.347656 170.996094 44.0625 176.726562 50.304688 178.910156 C 45.195312 185.820312 50.316406 189.171875 52.292969 189.691406 Z M 189.195312 67.796875 C 187.402344 68.78125 175.460938 72.039062 172.449219 70.285156 C 177.519531 75.125 165.558594 79.652344 161.363281 78.867188 C 164.226562 85.21875 162.996094 89.558594 156.011719 92.707031 C 161.214844 92.859375 167.847656 91.320312 172.746094 95.046875 C 173.773438 88.671875 182.710938 83.777344 188.136719 88.039062 C 185.824219 82.785156 190.339844 71.367188 196.105469 72.847656 C 201.4375 74.214844 206.824219 82.753906 204.773438 88.550781 C 209.195312 88.175781 215.054688 89.136719 216.144531 94.335938 C 221.023438 92.203125 230.453125 93.296875 235.441406 96.933594 C 231.089844 89.417969 227.652344 85.8125 227.898438 80.53125 C 220.191406 81.984375 212.4375 77.246094 214.34375 68.433594 C 198.585938 75.296875 197.617188 49.527344 212.117188 53.773438 C 209.1875 50.046875 210.371094 42.199219 215.0625 40.546875 C 210.214844 37.480469 209.683594 29.789062 211.710938 24.789062 C 210.132812 31.246094 202.738281 32.046875 197.335938 32.003906 C 202.835938 39.15625 193.539062 42.777344 188.03125 44.433594 C 194.300781 47.25 194.027344 53.214844 188.503906 56.859375 C 195.136719 62.308594 190.984375 66.8125 189.195312 67.796875 Z M 282.300781 210.609375 C 281.738281 212.570312 275.625 223.339844 272.257812 224.242188 C 279.269531 224.058594 274.042969 235.734375 270.519531 238.15625 C 277.039062 240.605469 279.253906 244.53125 276.558594 251.714844 C 280.332031 248.128906 283.921875 242.347656 290.023438 241.488281 C 286.226562 236.257812 289.054688 226.476562 295.90625 225.625 C 290.554688 223.554688 285.640625 212.304688 290.753906 209.261719 C 295.484375 206.449219 305.328125 208.648438 307.996094 214.195312 C 310.84375 210.796875 315.664062 207.316406 320.113281 210.203125 C 322.035156 205.234375 329.460938 199.324219 335.558594 198.347656 C 327.164062 196.132812 322.183594 196.03125 318.617188 192.136719 C 314.210938 198.621094 305.382812 200.785156 300.480469 193.214844 C 294.242188 209.234375 275.285156 191.75 288.511719 184.457031 C 283.804688 183.910156 279.074219 177.535156 281.222656 173.039062 C 275.625 174.320312 269.800781 169.269531 267.691406 164.308594 C 271.15625 169.980469 266.507812 175.785156 262.664062 179.589844 C 271.613281 180.730469 267.625 189.882812 264.914062 194.957031 C 271.332031 192.492188 275.367188 196.894531 274.058594 203.382812 C 282.605469 202.523438 282.871094 208.640625 282.300781 210.609375 Z M 324.96875 123.085938 C 323.539062 120.207031 321.804688 117.527344 319.660156 115.125 C 318.542969 113.875 316.167969 110.617188 314.085938 111.136719 C 312.289062 111.578125 312.414062 114.121094 312.25 115.503906 C 311.878906 118.6875 311.511719 121.878906 311.140625 125.0625 C 307.773438 119.734375 304.191406 114.570312 299.519531 110.261719 C 298.652344 109.460938 297.492188 110.277344 297.660156 111.34375 C 298.941406 119.390625 298.925781 127.484375 297.625 135.535156 C 297.394531 136.933594 299.535156 137.535156 299.761719 136.125 C 300.949219 128.796875 301.109375 121.480469 300.257812 114.15625 C 304.417969 118.59375 307.691406 123.707031 310.902344 128.890625 C 311.523438 129.898438 312.851562 129.378906 312.976562 128.328125 L 313.761719 121.582031 C 313.921875 120.183594 313.828125 115.066406 315.085938 114.535156 C 317.445312 113.527344 322.042969 122.183594 323.050781 124.21875 C 323.6875 125.484375 325.605469 124.359375 324.96875 123.085938 Z M 281.503906 53.921875 C 280.082031 53.15625 277.476562 51.113281 275.863281 52.660156 C 274.597656 53.875 274.9375 57.257812 275.25 59.859375 C 272.9375 58.164062 270.480469 56.710938 267.816406 55.578125 C 265.34375 54.527344 260.875 52.386719 258.128906 53.203125 C 256.171875 53.777344 256.195312 55.636719 257.171875 57.097656 C 258.378906 58.902344 260.117188 60.222656 261.238281 62.160156 C 262.695312 64.695312 263.515625 67.410156 263.84375 70.3125 C 263.996094 71.722656 266.21875 71.734375 266.0625 70.3125 C 265.789062 67.804688 265.25 65.40625 264.203125 63.09375 C 263.730469 62.042969 263.183594 61.027344 262.554688 60.066406 C 261.953125 59.148438 260.636719 58.082031 260.246094 57.125 C 259.113281 56.527344 259.164062 56.007812 260.398438 55.5625 C 261.183594 55.726562 261.953125 55.910156 262.722656 56.125 C 263.878906 56.445312 265.011719 56.824219 266.128906 57.265625 C 269.683594 58.671875 272.910156 60.679688 275.839844 63.117188 C 276.527344 63.695312 277.773438 63.367188 277.734375 62.332031 C 277.675781 60.761719 276.890625 57.222656 277.5 55.851562 C 278.222656 54.222656 278.1875 54.660156 279.785156 55.519531 C 280.785156 56.050781 281.785156 56.59375 282.785156 57.125 C 286.808594 59.289062 293.722656 61.628906 294.042969 66.980469 C 294.128906 68.402344 296.351562 68.410156 296.261719 66.980469 C 295.8125 59.652344 286.988281 56.867188 281.503906 53.921875 Z M 118.421875 86.035156 C 113.988281 86.054688 109.5625 86.070312 105.128906 86.09375 C 102.273438 86.109375 102.570312 85.566406 103.621094 83.042969 C 104.449219 81.050781 105.285156 79.050781 106.113281 77.058594 C 106.453125 76.246094 105.484375 75.496094 104.746094 75.691406 C 102.355469 76.332031 99.964844 76.976562 97.570312 77.613281 C 96.5 77.902344 95.351562 78.105469 94.316406 78.488281 C 93.066406 78.957031 91.496094 80.597656 92.746094 78.785156 C 95.617188 74.617188 99.835938 71.304688 104.175781 68.816406 C 105.410156 68.105469 104.292969 66.191406 103.058594 66.898438 C 99.792969 68.773438 96.773438 71.011719 94.152344 73.71875 C 93.019531 74.890625 89.519531 77.96875 89.75 79.8125 C 89.925781 81.273438 90.992188 81.441406 92.292969 81.332031 C 95.757812 81.042969 99.527344 79.628906 103.035156 78.511719 C 102.042969 80.578125 100.933594 82.738281 100.472656 84.84375 C 100.191406 86.128906 100.042969 86.980469 101.191406 87.832031 C 102.820312 89.03125 106.023438 88.308594 107.921875 88.300781 L 118.417969 88.253906 C 119.851562 88.246094 119.859375 86.027344 118.421875 86.035156 Z M 88.496094 139.4375 C 86.0625 140.621094 83.621094 141.804688 81.183594 142.992188 C 79.148438 143.976562 76.097656 146.261719 73.871094 146.542969 C 71.753906 146.804688 71.859375 145.730469 71.917969 144.101562 C 71.953125 142.960938 72 141.820312 72.035156 140.6875 L 72.324219 132.492188 C 72.355469 131.640625 71.363281 131.121094 70.652344 131.527344 C 62.851562 136.089844 55.898438 141.796875 49.933594 148.550781 C 51.199219 138.777344 54.996094 129.625 61.007812 121.730469 C 61.871094 120.589844 59.949219 119.488281 59.089844 120.613281 C 52.140625 129.742188 48.148438 140.523438 47.363281 151.964844 C 47.304688 152.882812 48.660156 153.492188 49.261719 152.75 C 55.152344 145.515625 62.117188 139.414062 70.03125 134.519531 C 69.917969 137.71875 69.808594 140.910156 69.695312 144.109375 C 69.636719 145.761719 69.179688 148.714844 71.289062 149.46875 C 73.25 150.171875 76.046875 147.953125 77.644531 147.175781 C 81.636719 145.234375 85.625 143.300781 89.613281 141.363281 C 90.902344 140.730469 89.777344 138.8125 88.496094 139.4375 Z M 81.878906 227.9375 L 81.578125 234.445312 C 81.523438 235.535156 81.472656 236.613281 81.421875 237.703125 C 81.382812 238.429688 81.355469 239.148438 81.316406 239.875 C 81.578125 241.035156 81.148438 241.449219 80.035156 241.109375 C 78.007812 241.347656 77.578125 238.84375 76.460938 237.511719 C 75.667969 236.5625 74.894531 236.015625 73.695312 235.75 C 72.300781 235.4375 71.710938 237.578125 73.101562 237.890625 C 75.972656 238.527344 77.921875 246.894531 82.191406 243.464844 C 83.695312 242.257812 83.53125 239.945312 83.613281 238.238281 C 83.773438 234.800781 83.929688 231.363281 84.09375 227.929688 C 84.167969 226.507812 81.945312 226.515625 81.878906 227.9375 Z M 120.792969 297.386719 C 116.847656 295.800781 112.910156 294.214844 108.964844 292.632812 C 108.203125 292.328125 107.3125 293.246094 107.59375 294 C 109.296875 298.511719 110.726562 303.101562 111.785156 307.804688 C 112.035156 308.9375 112.835938 310.085938 111.621094 310.550781 C 110.460938 311.003906 109.609375 309.566406 108.800781 308.839844 C 106.683594 306.945312 104.558594 305.050781 102.441406 303.160156 C 101.375 302.214844 99.808594 303.773438 100.875 304.730469 C 104.035156 307.558594 107.097656 310.839844 110.519531 313.34375 C 111.664062 314.179688 113.183594 314.925781 114.316406 313.609375 C 115.816406 311.855469 114.0625 307.738281 113.632812 305.9375 C 112.804688 302.449219 111.753906 299.027344 110.554688 295.652344 C 113.769531 296.941406 116.988281 298.238281 120.199219 299.523438 C 121.523438 300.058594 122.101562 297.910156 120.792969 297.386719 Z M 279.667969 307.382812 C 281.066406 305.902344 282.457031 304.390625 283.664062 302.796875 C 284.40625 301.8125 285.035156 300.769531 284.300781 299.628906 C 283.480469 298.332031 281.777344 298.421875 280.421875 298.316406 C 276.988281 298.050781 273.554688 297.84375 270.117188 297.605469 C 268.691406 297.511719 268.699219 299.730469 270.117188 299.828125 C 271.835938 299.945312 273.554688 300.066406 275.269531 300.183594 C 276.300781 300.257812 279.636719 299.933594 280.421875 300.539062 C 282.480469 302.140625 279.617188 303.984375 278.601562 305.121094 C 277.4375 306.417969 276.269531 307.714844 275.109375 309.019531 C 274.160156 310.078125 275.65625 311.601562 276.675781 310.585938 C 280.15625 307.136719 284.425781 313.742188 279.363281 315.214844 C 277.996094 315.617188 278.578125 317.761719 279.957031 317.355469 C 283.207031 316.40625 285.394531 312.476562 283.242188 309.425781 C 282.355469 308.167969 281.042969 307.515625 279.667969 307.382812 Z M 331.703125 216.445312 C 331.488281 215.652344 330.421875 215.347656 329.84375 215.957031 C 322.289062 223.921875 314.117188 231.238281 305.328125 237.828125 C 304.199219 238.671875 305.308594 240.605469 306.449219 239.746094 C 314.835938 233.453125 322.695312 226.53125 329.984375 219 C 330.621094 222.621094 330.3125 226.167969 329.066406 229.722656 C 328.59375 231.078125 330.742188 231.652344 331.207031 230.3125 C 332.820312 225.730469 332.96875 221.125 331.703125 216.445312 Z M 331.703125 216.445312 " fill-opacity="1" fill-rule="nonzero"/><path fill="#f7d96a" d="M 160.023438 56.726562 C 160.023438 67.046875 151.472656 75.414062 140.933594 75.414062 C 130.390625 75.414062 121.84375 67.046875 121.84375 56.726562 C 121.84375 46.402344 130.390625 38.035156 140.933594 38.035156 C 151.480469 38.035156 160.023438 46.402344 160.023438 56.726562 Z M 97.882812 153.421875 C 89.585938 153.421875 82.855469 160.339844 82.855469 168.863281 C 82.855469 177.386719 89.585938 184.300781 97.882812 184.300781 C 106.179688 184.300781 112.910156 177.386719 112.910156 168.863281 C 112.910156 160.339844 106.1875 153.421875 97.882812 153.421875 Z M 329.792969 241.183594 C 319.023438 241.183594 310.296875 249.914062 310.296875 260.6875 C 310.296875 271.460938 319.023438 280.191406 329.792969 280.191406 C 340.5625 280.191406 349.289062 271.460938 349.289062 260.6875 C 349.289062 249.914062 340.5625 241.183594 329.792969 241.183594 Z M 309.488281 61.597656 C 300.519531 61.597656 293.242188 69.054688 293.242188 78.257812 C 293.242188 87.464844 300.519531 94.917969 309.488281 94.917969 C 318.460938 94.917969 325.738281 87.464844 325.738281 78.257812 C 325.738281 69.054688 318.460938 61.597656 309.488281 61.597656 Z M 309.488281 61.597656 " fill-opacity="1" fill-rule="nonzero"/><path fill="#d81f07" d="M 63.257812 190.789062 C 63.257812 195.199219 59.613281 198.777344 55.113281 198.777344 C 53.65625 198.777344 52.292969 198.398438 51.109375 197.742188 C 49.867188 200.589844 46.988281 202.589844 43.625 202.589844 C 39.132812 202.589844 35.484375 199.015625 35.484375 194.601562 C 35.484375 192.070312 36.683594 189.816406 38.554688 188.359375 C 37.0625 186.90625 36.128906 184.902344 36.128906 182.671875 C 36.128906 178.257812 39.769531 174.683594 44.269531 174.683594 C 48.769531 174.683594 52.414062 178.257812 52.414062 182.671875 C 52.414062 182.871094 52.398438 183.070312 52.382812 183.273438 C 53.234375 182.976562 54.152344 182.804688 55.113281 182.804688 C 59.613281 182.804688 63.257812 186.382812 63.257812 190.789062 Z M 178.832031 71.527344 C 179.902344 75.808594 184.308594 78.390625 188.667969 77.296875 C 190.082031 76.941406 191.308594 76.246094 192.292969 75.320312 C 194.195312 77.777344 197.476562 79.015625 200.734375 78.199219 C 205.09375 77.105469 207.757812 72.75 206.683594 68.46875 C 206.070312 66.019531 204.359375 64.125 202.183594 63.160156 C 203.28125 61.390625 203.695312 59.214844 203.152344 57.058594 C 202.082031 52.78125 197.675781 50.195312 193.316406 51.292969 C 188.957031 52.386719 186.292969 56.742188 187.363281 61.019531 C 187.417969 61.214844 187.476562 61.40625 187.542969 61.589844 C 186.640625 61.507812 185.714844 61.570312 184.78125 61.796875 C 180.421875 62.894531 177.757812 67.25 178.832031 71.527344 Z M 277.640625 220.589844 C 281.429688 222.851562 286.367188 221.546875 288.667969 217.679688 C 289.414062 216.429688 289.785156 215.066406 289.824219 213.710938 C 292.910156 214.097656 296.101562 212.644531 297.816406 209.757812 C 300.117188 205.894531 298.914062 200.933594 295.121094 198.671875 C 292.945312 197.378906 290.398438 197.257812 288.1875 198.117188 C 287.707031 196.089844 286.453125 194.269531 284.546875 193.128906 C 280.753906 190.867188 275.816406 192.171875 273.515625 196.039062 C 271.214844 199.902344 272.421875 204.863281 276.210938 207.121094 C 276.382812 207.226562 276.558594 207.316406 276.742188 207.402344 C 276.046875 207.988281 275.433594 208.683594 274.945312 209.507812 C 272.644531 213.371094 273.847656 218.332031 277.640625 220.589844 Z M 277.640625 220.589844 " fill-opacity="1" fill-rule="nonzero"/><path fill="#000000" d="M 204.804688 329.375 C 213.804688 318.875 210.800781 306.574219 207.957031 301.539062 L 208.585938 301.183594 C 211.519531 306.375 214.613281 319.035156 205.351562 329.839844 Z M 175.070312 320.300781 C 173.605469 312.503906 176.722656 302.8125 180.539062 298.660156 L 180.007812 298.171875 C 176.0625 302.457031 172.855469 312.425781 174.359375 320.4375 C 175.226562 325.0625 177.585938 328.625 181.214844 330.800781 C 172.925781 331.792969 157.269531 341.554688 156.449219 342.367188 L 156.957031 342.878906 C 157.785156 342.050781 175.019531 331.4375 182.480469 331.4375 L 184.035156 331.4375 L 182.644531 330.757812 C 178.542969 328.742188 175.996094 325.226562 175.070312 320.300781 Z M 204.582031 332.570312 C 208.980469 336.726562 226.714844 343.664062 236.210938 344.945312 L 236.308594 344.234375 C 227.105469 342.992188 209.304688 336.042969 205.078125 332.046875 Z M 160.40625 314.742188 L 160.378906 314.023438 C 154.09375 314.296875 150.230469 311.757812 149.1875 309.144531 C 148.59375 307.664062 148.914062 306.234375 150.050781 305.242188 C 152.574219 303.042969 159.148438 302.878906 170.039062 309.046875 L 170.390625 308.417969 C 163.042969 304.257812 153.707031 301.085938 149.578125 304.699219 C 148.214844 305.894531 147.816406 307.65625 148.519531 309.417969 C 149.527344 311.933594 152.984375 314.769531 159.460938 314.769531 C 159.761719 314.757812 160.082031 314.75 160.40625 314.742188 Z M 213.976562 310.875 L 214.34375 311.5 C 225.730469 304.730469 233.40625 305.613281 236.519531 308.417969 C 238.074219 309.824219 238.519531 311.71875 237.699219 313.496094 C 235.550781 318.140625 227.402344 318.800781 221.082031 317.957031 L 220.984375 318.667969 C 222.804688 318.910156 224.472656 319.019531 225.996094 319.019531 C 233.21875 319.019531 237.097656 316.503906 238.351562 313.800781 C 239.296875 311.757812 238.777344 309.492188 237.003906 307.886719 C 233.707031 304.910156 225.691406 303.902344 213.976562 310.875 Z M 47.988281 187.394531 C 48.980469 184.894531 51.589844 183.917969 51.621094 183.902344 L 51.375 183.21875 C 51.257812 183.265625 48.511719 184.285156 47.363281 187.019531 C 45.367188 185.945312 43.070312 185.855469 41.148438 186.820312 L 41.472656 187.464844 C 43.308594 186.542969 45.523438 186.691406 47.402344 187.855469 C 49.824219 189.351562 51.265625 192.210938 51.265625 195.496094 L 51.984375 195.496094 C 51.984375 192.0625 50.488281 189.0625 47.988281 187.394531 Z M 193.332031 64.011719 C 191.5625 61.644531 188.644531 61.316406 188.519531 61.300781 L 188.445312 62.019531 C 188.476562 62.019531 191.238281 62.332031 192.820312 64.523438 C 190.800781 66.746094 190.082031 70.019531 190.917969 73.355469 L 191.613281 73.179688 C 190.816406 69.988281 191.519531 66.871094 193.5 64.828125 C 195.039062 63.242188 197.15625 62.5625 199.15625 63.003906 L 199.3125 62.300781 C 197.210938 61.84375 195.011719 62.488281 193.332031 64.011719 Z M 283.234375 205.464844 C 283.199219 203.257812 284.203125 201.273438 285.929688 200.167969 L 285.539062 199.5625 C 283.722656 200.726562 282.628906 202.738281 282.523438 205.003906 C 279.601562 204.597656 277.3125 206.425781 277.210938 206.507812 L 277.667969 207.0625 C 277.691406 207.046875 279.867188 205.300781 282.515625 205.730469 C 282.664062 208.730469 284.484375 211.550781 287.4375 213.3125 L 287.808594 212.691406 C 284.996094 211.011719 283.285156 208.308594 283.234375 205.464844 Z M 283.234375 205.464844 " fill-opacity="1" fill-rule="nonzero"/></svg>